{
    "asset" : {
        "generator" : "Khronos glTF Blender I/O v1.7.33",
        "version" : "2.0"
    },
    "extensionsUsed" : [
        "KHR_materials_transmission"
    ],
    "scene" : 0,
    "scenes" : [
        {
            "name" : "Scene",
            "nodes" : [
                2
            ]
        }
    ],
    "nodes" : [
        {
            "mesh" : 0,
            "name" : "Circle.001"
        },
        {
            "mesh" : 1,
            "name" : "Circle.002",
            "translation" : [
                0.004374459385871887,
                0,
                0
            ]
        },
        {
            "children" : [
                0,
                1
            ],
            "mesh" : 2,
            "name" : "Circle",
            "translation" : [
                -0.004466056823730469,
                0,
                0
            ]
        }
    ],
    "materials" : [
        {
            "doubleSided" : true,
            "name" : "White",
            "pbrMetallicRoughness" : {
                "baseColorFactor" : [
                    0.800000011920929,
                    0.800000011920929,
                    0.800000011920929,
                    1
                ],
                "metallicFactor" : 0,
                "roughnessFactor" : 0.20000000298023224
            }
        },
        {
            "doubleSided" : true,
            "extensions" : {
                "KHR_materials_transmission" : {
                    "transmissionFactor" : 1
                }
            },
            "name" : "Coffee",
            "pbrMetallicRoughness" : {
                "baseColorFactor" : [
                    0.6038522720336914,
                    0.33832815289497375,
                    0.10411804169416428,
                    1
                ],
                "metallicFactor" : 0,
                "roughnessFactor" : 0
            }
        }
    ],
    "meshes" : [
        {
            "name" : "Circle.001",
            "primitives" : [
                {
                    "attributes" : {
                        "POSITION" : 0,
                        "NORMAL" : 1,
                        "TEXCOORD_0" : 2
                    },
                    "indices" : 3,
                    "material" : 0
                }
            ]
        },
        {
            "name" : "Circle.002",
            "primitives" : [
                {
                    "attributes" : {
                        "POSITION" : 4,
                        "NORMAL" : 5,
                        "TEXCOORD_0" : 6
                    },
                    "indices" : 7,
                    "material" : 1
                }
            ]
        },
        {
            "name" : "Circle",
            "primitives" : [
                {
                    "attributes" : {
                        "POSITION" : 8,
                        "NORMAL" : 9,
                        "TEXCOORD_0" : 10
                    },
                    "indices" : 11,
                    "material" : 0
                }
            ]
        }
    ],
    "accessors" : [
        {
            "bufferView" : 0,
            "componentType" : 5126,
            "count" : 610,
            "max" : [
                2.4638192653656006,
                1.979405403137207,
                0.31635987758636475
            ],
            "min" : [
                1.1312962770462036,
                0.24251244962215424,
                -0.25290703773498535
            ],
            "type" : "VEC3"
        },
        {
            "bufferView" : 1,
            "componentType" : 5126,
            "count" : 610,
            "type" : "VEC3"
        },
        {
            "bufferView" : 2,
            "componentType" : 5126,
            "count" : 610,
            "type" : "VEC2"
        },
        {
            "bufferView" : 3,
            "componentType" : 5123,
            "count" : 3648,
            "type" : "SCALAR"
        },
        {
            "bufferView" : 4,
            "componentType" : 5126,
            "count" : 1250,
            "max" : [
                1.2665876150131226,
                1.4381598234176636,
                1.2665873765945435
            ],
            "min" : [
                -1.266587257385254,
                0.29608094692230225,
                -1.2665873765945435
            ],
            "type" : "VEC3"
        },
        {
            "bufferView" : 5,
            "componentType" : 5126,
            "count" : 1250,
            "type" : "VEC3"
        },
        {
            "bufferView" : 6,
            "componentType" : 5126,
            "count" : 1250,
            "type" : "VEC2"
        },
        {
            "bufferView" : 7,
            "componentType" : 5123,
            "count" : 7488,
            "type" : "SCALAR"
        },
        {
            "bufferView" : 8,
            "componentType" : 5126,
            "count" : 1826,
            "max" : [
                1.6032816171646118,
                2.042315721511841,
                1.6032816171646118
            ],
            "min" : [
                -1.6032816171646118,
                0.003262269077822566,
                -1.6032816171646118
            ],
            "type" : "VEC3"
        },
        {
            "bufferView" : 9,
            "componentType" : 5126,
            "count" : 1826,
            "type" : "VEC3"
        },
        {
            "bufferView" : 10,
            "componentType" : 5126,
            "count" : 1826,
            "type" : "VEC2"
        },
        {
            "bufferView" : 11,
            "componentType" : 5123,
            "count" : 10944,
            "type" : "SCALAR"
        }
    ],
    "bufferViews" : [
        {
            "buffer" : 0,
            "byteLength" : 7320,
            "byteOffset" : 0
        },
        {
            "buffer" : 0,
            "byteLength" : 7320,
            "byteOffset" : 7320
        },
        {
            "buffer" : 0,
            "byteLength" : 4880,
            "byteOffset" : 14640
        },
        {
            "buffer" : 0,
            "byteLength" : 7296,
            "byteOffset" : 19520
        },
        {
            "buffer" : 0,
            "byteLength" : 15000,
            "byteOffset" : 26816
        },
        {
            "buffer" : 0,
            "byteLength" : 15000,
            "byteOffset" : 41816
        },
        {
            "buffer" : 0,
            "byteLength" : 10000,
            "byteOffset" : 56816
        },
        {
            "buffer" : 0,
            "byteLength" : 14976,
            "byteOffset" : 66816
        },
        {
            "buffer" : 0,
            "byteLength" : 21912,
            "byteOffset" : 81792
        },
        {
            "buffer" : 0,
            "byteLength" : 21912,
            "byteOffset" : 103704
        },
        {
            "buffer" : 0,
            "byteLength" : 14608,
            "byteOffset" : 125616
        },
        {
            "buffer" : 0,
            "byteLength" : 21888,
            "byteOffset" : 140224
        }
    ],
    "buffers" : [
        {
            "byteLength" : 162112,
            "uri" : "data:application/octet-stream;base64,"
        }
    ]
}
